<?xml version="1.0" encoding="utf-8"?>
<!-- Generator: Adobe Illustrator 22.0.0, SVG Export Plug-In . SVG Version: 6.00 Build 0)  -->
<svg version="1.0" id="Слой_1" xmlns="http://www.w3.org/2000/svg" xmlns:xlink="http://www.w3.org/1999/xlink" x="0px" y="0px"
	 viewBox="0 0 235.4 271.5" style="enable-background:new 0 0 235.4 271.5;" xml:space="preserve">
<style type="text/css">
	.st0{fill:#0F003B;}
	.st1{fill:#A17B35;}
	.st2{fill:#ECBB3D;}
	.st3{fill:#CF9C35;}
	.st4{fill:#E5E6E7;}
	.st5{fill:#999999;}
	.st6{fill:#FFFFFF;}
	.st7{fill:#AE1C22;}
	.st8{fill:#730800;}
</style>
<g>
	<circle class="st0" cx="117.7" cy="116.4" r="106.4"/>
	<g>
		<path class="st1" d="M117.7,29.3c-3.8,0-7.5,0.2-11.1,0.7v124.8h22.3V30C125.2,29.5,121.5,29.3,117.7,29.3z"/>
		<path class="st2" d="M128.9,30v124.8h22.3V35.9C144.1,33,136.7,31,128.9,30z"/>
		<path class="st1" d="M151.1,35.9v118.9h22.3V49.3C166.7,43.8,159.2,39.3,151.1,35.9z"/>
		<path class="st2" d="M173.4,49.3v105.5h22.3V77.3C190.2,66.5,182.6,57,173.4,49.3z"/>
		<path class="st1" d="M196,154.8c5.7-11.6,8.9-24.6,8.9-38.4c0-14.1-3.3-27.3-9.3-39.1v77.5H196z"/>
		<path class="st2" d="M84.4,35.9v118.9h22.3V30C98.8,31,91.4,33,84.4,35.9z"/>
		<path class="st1" d="M62.1,49.3v105.5h22.3V35.9C76.3,39.3,68.8,43.8,62.1,49.3z"/>
		<path class="st2" d="M39.9,77.3v77.5h22.3V49.3C52.9,57,45.3,66.5,39.9,77.3z"/>
		<path class="st1" d="M30.6,116.4c0,13.8,3.2,26.8,8.9,38.4h0.4V77.3C34,89,30.6,102.3,30.6,116.4z"/>
	</g>
	<g>
		<path class="st0" d="M230.3,161.9h-35.8l-7.1,7.1v-7.1h-35.8l-7.1,7.1v-7.1h-43.2h-6.9H55h-6.9H19.2l-14,13.9v47l14,14H41l7.1-7.1
			v7.1h46.3h6.9h36.3h6.9h28.9l7.1-7.1v7.1h35.8l14-14v-22.6l-5.7-5.7h5.7V161.9z M31.3,204v-9.5H51v9.5H31.3z M143.3,204.1h-4.1
			V200L143.3,204.1z"/>
		<polygon class="st3" points="36.1,171.1 34.1,169.2 22.2,169.2 12.5,178.8 12.5,219.8 22.2,229.5 38,229.5 47.7,219.8 47.7,211.3 
			36.1,211.3 36.1,215 33.1,218 26.9,218 24,215 24,183.6 26.9,180.7 33.1,180.7 36.1,183.6 36.1,187.2 47.7,187.2 47.7,169.2 
			36.1,169.2 		"/>
		<polygon class="st3" points="76.6,180.7 79.6,180.7 79.6,193.5 69.8,193.5 69.8,180.7 72.7,180.7 72.7,169.2 55.4,169.2 
			55.4,180.7 58.3,180.7 58.3,218 55.4,218 55.4,229.5 72.7,229.5 72.7,218 69.8,218 69.8,205.1 79.6,205.1 79.6,218 76.6,218 
			76.6,229.5 94,229.5 94,218 91.1,218 91.1,180.7 94,180.7 94,169.2 76.6,169.2 		"/>
		<polygon class="st3" points="101.7,180.7 104.5,180.7 104.5,218 101.7,218 101.7,229.5 137.2,229.5 137.2,213.1 125.7,213.1 
			125.7,218 116,218 116,205.1 120.3,205.1 120.3,208.2 131.9,208.2 131.9,190.4 120.3,190.4 120.3,193.5 116,193.5 116,180.7 
			125.7,180.7 125.7,185.6 137.2,185.6 137.2,169.2 101.7,169.2 		"/>
		<polygon class="st3" points="168.6,171.2 166.5,169.2 154.6,169.2 144.9,178.8 144.9,195.4 154.6,205.1 165.7,205.1 168.6,208.1 
			168.6,215 165.7,218 159.4,218 156.5,215 156.5,211.4 144.9,211.4 144.9,229.5 156.5,229.5 156.5,227.5 158.5,229.5 170.4,229.5 
			180.1,219.8 180.1,203.2 170.4,193.5 159.4,193.5 156.5,190.6 156.5,183.6 159.4,180.7 165.7,180.7 168.6,183.6 168.6,187.2 
			180.1,187.2 180.1,169.2 168.6,169.2 		"/>
		<polygon class="st3" points="223,187.2 223,169.2 211.5,169.2 211.5,171.2 209.4,169.2 197.5,169.2 187.8,178.8 187.8,195.4 
			197.5,205.1 208.6,205.1 211.5,208.1 211.5,215 208.6,218 202.3,218 199.4,215 199.4,211.4 187.8,211.4 187.8,229.5 199.4,229.5 
			199.4,227.5 201.4,229.5 213.3,229.5 223,219.8 223,203.2 213.3,193.5 202.3,193.5 199.4,190.6 199.4,183.6 202.3,180.7 
			208.6,180.7 211.5,183.6 211.5,187.2 		"/>
		<g>
			<polygon class="st2" points="221.2,171 213.3,171 213.3,175.4 208.7,171 198.3,171 189.6,179.6 189.6,182.3 198.1,182.3 
				201.5,178.9 209.3,178.9 212.7,182.3 221.2,182.3 			"/>
			<polygon class="st2" points="37.9,171 37.9,175.2 33.3,171 22.9,171 14.3,179.6 14.3,182.3 22.8,182.3 26.2,178.9 33.9,178.9 
				37.4,182.3 45.9,182.3 45.9,171 			"/>
			<polygon class="st2" points="68,178.9 70.9,178.9 70.9,171 57.2,171 57.2,178.9 60.1,178.9 60.1,182.3 68,182.3 			"/>
			<polygon class="st2" points="92.2,178.9 92.2,171 78.5,171 78.5,178.9 81.4,178.9 81.4,182.3 89.3,182.3 89.3,178.9 			"/>
			<polygon class="st2" points="103.5,171 103.5,178.9 106.4,178.9 106.4,182.3 114.2,182.3 114.2,178.9 127.5,178.9 127.5,182.3 
				135.4,182.3 135.4,171 			"/>
			<polygon class="st2" points="170.4,171 170.4,175.4 165.8,171 155.4,171 146.7,179.6 146.7,182.3 155.2,182.3 158.6,178.9 
				166.4,178.9 169.8,182.3 178.3,182.3 178.3,171 			"/>
			<polygon class="st1" points="14.3,219 22.9,227.7 37.2,227.7 45.9,219 45.9,216.1 37.5,216.1 33.9,219.8 26.2,219.8 22.6,216.1 
				14.3,216.1 			"/>
			<polygon class="st1" points="60.1,219.8 57.2,219.8 57.2,227.7 70.9,227.7 70.9,219.8 68,219.8 68,216.1 60.1,216.1 			"/>
			<polygon class="st1" points="81.4,219.8 78.5,219.8 78.5,227.7 92.2,227.7 92.2,219.8 89.3,219.8 89.3,216.1 81.4,216.1 			"/>
			<polygon class="st1" points="106.4,219.8 103.5,219.8 103.5,227.7 135.4,227.7 135.4,216.1 127.5,216.1 127.5,219.8 114.2,219.8 
				114.2,216.1 106.4,216.1 			"/>
			<polygon class="st1" points="166.4,219.8 158.6,219.8 155,216.1 146.7,216.1 146.7,227.7 154.6,227.7 154.6,223.3 159.3,227.7 
				169.7,227.7 178.3,219 178.3,216.1 170.1,216.1 			"/>
			<polygon class="st1" points="209.3,219.8 201.5,219.8 197.9,216.1 189.6,216.1 189.6,227.7 197.5,227.7 197.5,223.3 202.2,227.7 
				212.6,227.7 221.2,219 221.2,216.1 213,216.1 			"/>
		</g>
	</g>
	<g>
		<path class="st0" d="M160.6,248.7l0.4-0.4v-4.1v-6.5l-6.6-6.6h-14.2h-3.4h-6.5h-5.1h-9.9v12.4h1.3v0.7v6.6h-8.4v-6.6v-0.7h1.3h0
			v-12.4h0H97.9h-3.4H81.1l-6.6,6.5v6.6v8.9v6.5l6.6,6.6h10.2l3.2-3.2v3.2h24.2v-4.5l4.5,4.5h9.2l4.5-4.5v4.5h17.6l6.5-6.5l0-10.6
			L160.6,248.7z M86.9,250.8v-4.2h9v4.2H86.9z"/>
		<g>
			<g>
				<polygon class="st4" points="89,235.5 88.1,234.6 82.5,234.6 78,239.1 78,258.2 82.5,262.7 89.9,262.7 94.4,258.2 94.4,254.3 
					89,254.3 89,256 87.6,257.4 84.7,257.4 83.4,256 83.4,241.4 84.7,240 87.6,240 89,241.4 89,243.1 94.4,243.1 94.4,234.6 
					89,234.6 				"/>
				<polygon class="st4" points="109.8,257.4 104.7,257.4 104.7,240 106,240 106,234.6 98,234.6 98,240 99.3,240 99.3,257.4 
					98,257.4 98,262.7 115.2,262.7 115.2,254.3 109.8,254.3 				"/>
				<polygon class="st4" points="128.6,240 130,240 130,256 128.6,257.4 126.8,257.4 125.4,256 125.5,240 126.8,240 126.8,234.6 
					118.7,234.6 118.7,240 120,240 120,258.2 124.6,262.7 130.8,262.7 135.4,258.2 135.4,240 136.7,240 136.7,234.6 128.6,234.6 
									"/>
				<path class="st4" d="M157.5,239.2l-4.5-4.5h-12.7v5.4h1.3v17.3h-1.3v5.4H153l4.5-4.5l0-7.7l-1.8-1.8l1.8-1.8V239.2z M152.1,256
					l-1.4,1.4H147v-6h3.8l1.4,1.4V256z M152.1,244.6l-1.4,1.4H147v-6h3.8l1.4,1.4V244.6z"/>
			</g>
			<g>
				<polygon class="st5" points="87.6,257.4 84.7,257.4 84,256.6 78,256.6 78,258.2 82.5,262.7 89.9,262.7 94.4,258.2 94.4,256.6 
					88.4,256.6 				"/>
				<polygon class="st6" points="84.7,240 87.6,240 88.4,240.8 94.4,240.8 94.4,234.6 89,234.6 89,235.5 88.1,234.6 82.5,234.6 
					78,239.1 78,240.8 84,240.8 				"/>
				<polygon class="st6" points="104.7,240 106,240 106,234.6 98,234.6 98,240 99.3,240 99.3,240.8 104.7,240.8 				"/>
				<polygon class="st5" points="109.8,257.4 104.7,257.4 104.7,256.6 99.3,256.6 99.3,257.4 98,257.4 98,262.7 115.2,262.7 
					115.2,256.6 109.8,256.6 				"/>
				<polygon class="st5" points="128.6,257.4 126.8,257.4 126.1,256.6 120,256.6 120,258.2 124.6,262.7 130.8,262.7 135.4,258.2 
					135.4,256.6 129.3,256.6 				"/>
				<polygon class="st6" points="125.5,240 126.8,240 126.8,234.6 118.7,234.6 118.7,240 120,240 120,240.8 125.5,240.8 				"/>
				<polygon class="st6" points="135.4,240 136.7,240 136.7,234.6 128.6,234.6 128.6,240 130,240 130,240.8 135.4,240.8 				"/>
				<polygon class="st6" points="147,240 150.7,240 151.5,240.8 157.5,240.8 157.5,239.2 153,234.6 140.3,234.6 140.3,240 
					141.6,240 141.6,240.8 147,240.8 				"/>
				<polygon class="st5" points="150.7,257.4 147,257.4 147,256.6 141.6,256.6 141.6,257.4 140.3,257.4 140.3,262.7 153,262.7 
					157.5,258.3 157.5,256.6 151.5,256.6 				"/>
			</g>
		</g>
	</g>
	<g>
		<path class="st7" d="M134.2,43.2c0.4,0.6,0.7,1.3,1.1,1.9c0.7-2,1.3-4.7,1.6-7.5c0.1-0.7,0.1-1.4,0.1-2.1c0-0.4,0-0.7,0-1
			c0-0.3,0-0.7,0-1c0-0.3-0.1-0.7-0.1-1c0-0.3-0.1-0.6-0.1-0.9c-0.1-0.6-0.2-1.2-0.3-1.7c-0.1-0.3-0.1-0.5-0.2-0.8
			c-0.1-0.2-0.1-0.5-0.2-0.7c-0.1-0.4-0.2-0.8-0.3-1.1c-0.2-0.6-0.3-0.9-0.3-0.9s0.2,0.3,0.5,0.9c0.1,0.3,0.3,0.6,0.5,1
			c0.1,0.2,0.2,0.4,0.3,0.7c0.1,0.2,0.2,0.5,0.3,0.7c0.2,0.5,0.4,1.1,0.5,1.7c0.1,0.3,0.2,0.6,0.2,0.9c0.1,0.3,0.1,0.7,0.2,1
			c0.1,0.3,0.1,0.7,0.2,1c0,0.4,0.1,0.7,0.1,1.1c0.1,0.7,0.1,1.5,0.2,2.2c0.1,3-0.2,6-0.6,8.2c-0.2,1.1-0.4,2-0.6,2.7
			c0,0,0,0.1,0,0.1c1.2,2.6,2.3,5.2,3.3,7.9c0.1-0.1,0.1-0.2,0.2-0.4c0.5-1,1.1-2.2,1.6-3.5c0.3-0.7,0.5-1.4,0.7-2.1
			c0.2-0.7,0.4-1.4,0.6-2.2c0.2-0.7,0.3-1.5,0.5-2.2c0.1-0.7,0.2-1.5,0.3-2.2c0.1-0.7,0.1-1.4,0.2-2.1c0-0.3,0-0.7,0-1
			c0-0.3,0-0.6,0-0.9c0-0.6,0-1.1-0.1-1.6c0-0.5-0.1-0.9-0.1-1.2c-0.1-0.7-0.1-1.1-0.1-1.1s0.1,0.4,0.3,1c0.1,0.3,0.2,0.7,0.3,1.2
			c0.1,0.5,0.2,1,0.3,1.6c0,0.3,0.1,0.6,0.1,0.9c0,0.3,0.1,0.6,0.1,1c0,0.7,0.1,1.4,0.1,2.1c0,0.7,0,1.5-0.1,2.3
			c0,0.8-0.1,1.6-0.2,2.4c-0.1,0.8-0.2,1.6-0.4,2.3c-0.1,0.8-0.3,1.5-0.5,2.3c-0.4,1.5-0.8,2.8-1.2,3.9c-0.4,1.1-0.8,2.1-1.1,2.7
			c-0.1,0.1-0.1,0.3-0.2,0.4c0.3,1.1,0.6,2.1,0.9,3.2c2.7-5,4.4-10.1,5-15.1c0.8-7.1-0.7-13.9-4.1-19.3c-0.6-0.9-1.2-1.7-1.9-2.4
			c0.1,0.3,0.1,0.7,0.2,1c0.1,0.8,0.3,1.5,0.4,2.4c0.1,0.4,0.1,0.8,0.2,1.2c0,0.4,0.1,0.9,0.1,1.3c0.1,0.9,0.1,1.7,0.1,2.6
			c0,0.4,0,0.9,0,1.3c0,0.4,0,0.9,0,1.3c0,0.9-0.1,1.7-0.1,2.5c-0.1,0.8-0.2,1.6-0.3,2.3c-0.1,0.7-0.2,1.4-0.3,2.1
			c-0.1,0.3-0.1,0.6-0.2,0.9c0,0.1,0,0.3-0.1,0.4c0,0.1-0.1,0.3-0.1,0.4c-0.1,0.5-0.2,1-0.3,1.3c-0.2,0.7-0.3,1.2-0.3,1.2
			s0.1-0.4,0.1-1.2c0-0.4,0.1-0.8,0.2-1.3c0-0.1,0-0.3,0-0.4c0-0.1,0-0.3,0-0.4c0-0.3,0-0.6,0.1-0.9c0-0.6,0.1-1.3,0.1-2.1
			c0-0.7,0-1.5,0-2.3c0-0.8-0.1-1.6-0.1-2.5c0-0.4-0.1-0.8-0.1-1.3c0-0.4-0.1-0.8-0.1-1.3c-0.1-0.8-0.2-1.7-0.4-2.5
			c-0.1-0.4-0.2-0.8-0.2-1.2c-0.1-0.4-0.2-0.8-0.3-1.2c-0.2-0.8-0.4-1.5-0.6-2.2c-0.1-0.3-0.2-0.7-0.3-1c-0.1-0.3-0.2-0.6-0.3-0.9
			c-0.1-0.3-0.2-0.6-0.3-0.8c-0.1-0.3-0.2-0.5-0.3-0.7c-0.2-0.5-0.4-0.9-0.5-1.2c-0.1-0.2-0.2-0.4-0.3-0.6c-2.3-1.6-4.8-2.7-7.3-3.3
			C134.3,26.5,135.9,35.2,134.2,43.2z"/>
		<path class="st7" d="M144.5,74.6c0.1-0.2,0.2-0.3,0.4-0.5c0.5-0.7,1-1.4,1.5-2.2c0.5-0.8,1-1.6,1.5-2.5c0.5-0.9,0.9-1.7,1.3-2.7
			c0.2-0.5,0.4-0.9,0.6-1.4c0.2-0.5,0.4-0.9,0.5-1.4c0.3-0.9,0.7-1.9,0.9-2.8c0.1-0.5,0.3-0.9,0.4-1.3c0.1-0.4,0.2-0.9,0.3-1.3
			c0.1-0.4,0.2-0.8,0.2-1.3c0.1-0.4,0.1-0.8,0.2-1.2c0.1-0.4,0.1-0.7,0.1-1.1c0-0.3,0.1-0.7,0.1-1c0-0.6,0.1-1.2,0.1-1.6
			c0-0.9,0-1.4,0-1.4s0.1,0.5,0.3,1.4c0.1,0.4,0.1,1,0.2,1.6c0,0.3,0.1,0.7,0.1,1c0,0.4,0.1,0.7,0.1,1.1c0,0.4,0,0.8,0,1.2
			c0,0.4,0,0.9,0,1.3c0,0.5,0,0.9-0.1,1.4c0,0.5-0.1,1-0.1,1.5c-0.1,1-0.2,2-0.4,3c-0.1,0.5-0.2,1-0.3,1.6c-0.1,0.5-0.2,1-0.4,1.6
			c-0.3,1-0.6,2.1-0.9,3.1c-0.3,1-0.7,2-1.1,2.9c-0.4,0.9-0.8,1.8-1.2,2.7c-0.4,0.8-0.8,1.6-1.2,2.3c-0.8,1.4-1.5,2.6-2.1,3.4
			c-0.2,0.4-0.4,0.6-0.6,0.9c0.1,1.6,0.1,3.1,0.2,4.5c6.1-6.9,10-14.4,11.4-21.8c1.6-8.2-0.8-17.2-6-23.6c0.1,2.1,0.1,4.3-0.2,6.5
			c-0.7,6.4-3.1,12.8-7,19.1C143.9,70,144.2,72.3,144.5,74.6z"/>
		<path class="st7" d="M112.3,21.1l-0.1,0.1c0.8,0.4,1.6,0.8,2.4,1.3c0.7,0.4,1.4,0.8,2.1,1.3c-0.5-1.8-1.3-4.1-2.6-6.2
			c-0.3-0.6-0.7-1.1-1.1-1.7c-0.2-0.3-0.4-0.5-0.6-0.8c-0.2-0.3-0.4-0.5-0.6-0.7c-0.2-0.2-0.4-0.5-0.6-0.7c-0.2-0.2-0.4-0.4-0.6-0.6
			c-0.2-0.2-0.4-0.4-0.6-0.6c-0.2-0.2-0.4-0.4-0.6-0.5c-0.2-0.2-0.4-0.3-0.6-0.5c-0.2-0.1-0.4-0.3-0.5-0.4c-0.3-0.2-0.6-0.4-0.9-0.6
			c-0.5-0.3-0.8-0.5-0.8-0.5s0.3,0.1,0.9,0.4c0.3,0.1,0.6,0.3,1,0.5c0.2,0.1,0.4,0.2,0.6,0.3c0.2,0.1,0.4,0.2,0.6,0.4
			c0.2,0.1,0.5,0.3,0.7,0.4c0.2,0.2,0.5,0.3,0.7,0.5c0.2,0.2,0.5,0.4,0.7,0.6c0.2,0.2,0.5,0.4,0.7,0.6c0.2,0.2,0.5,0.5,0.7,0.7
			c0.2,0.2,0.5,0.5,0.7,0.7c0.5,0.5,0.9,1,1.4,1.6c1.7,2.2,3.1,4.8,3.9,6.8c0.4,1,0.7,1.8,0.9,2.5c0.1,0.2,0.1,0.3,0.1,0.4
			c2.2,1.8,4.4,3.9,6.4,6.2c0-0.9,0-1.9-0.1-2.9c-0.1-0.6-0.1-1.2-0.2-1.8c-0.1-0.6-0.2-1.2-0.4-1.9c-0.2-0.6-0.3-1.2-0.5-1.8
			c-0.1-0.3-0.2-0.6-0.3-0.9c-0.1-0.3-0.2-0.6-0.3-0.9c-0.2-0.6-0.5-1.1-0.7-1.6c-0.1-0.2-0.3-0.5-0.4-0.7c-0.1-0.2-0.3-0.4-0.4-0.7
			c-0.3-0.4-0.5-0.8-0.7-1.1c-0.2-0.3-0.4-0.6-0.6-0.8c-0.4-0.5-0.6-0.7-0.6-0.7s0.2,0.2,0.7,0.6c0.2,0.2,0.4,0.5,0.7,0.8
			c0.3,0.3,0.6,0.6,0.9,1c0.2,0.2,0.3,0.4,0.5,0.6c0.2,0.2,0.3,0.4,0.5,0.7c0.3,0.5,0.7,1,1,1.5c0.2,0.3,0.3,0.6,0.5,0.8
			c0.2,0.3,0.3,0.6,0.5,0.9c0.3,0.6,0.6,1.2,0.8,1.8c0.2,0.6,0.5,1.3,0.7,1.9c0.2,0.6,0.4,1.3,0.5,1.9c0.3,1.3,0.5,2.4,0.6,3.5
			c0.1,1,0.2,1.9,0.2,2.5c0,0.2,0,0.4,0,0.6c0.8,1.1,1.6,2.2,2.4,3.3c0.8-8.7-2.6-17.9-9.1-23.8c-2.4-2.2-5.2-3.9-8.2-5.2
			c0.2,0.2,0.3,0.3,0.5,0.5c0.2,0.3,0.5,0.5,0.7,0.8c0.5,0.5,0.9,1.1,1.4,1.7c0.2,0.3,0.4,0.6,0.6,0.9c0.2,0.3,0.4,0.6,0.6,0.9
			c0.4,0.6,0.7,1.2,1.1,1.8c0.3,0.6,0.6,1.2,0.9,1.7c0.1,0.1,0.1,0.3,0.2,0.4c0.1,0.1,0.1,0.3,0.2,0.4c0.1,0.3,0.2,0.5,0.3,0.8
			c0.2,0.5,0.4,0.9,0.5,1.4c0.1,0.4,0.3,0.8,0.4,1.1c0.2,0.6,0.3,0.9,0.3,0.9s-0.2-0.3-0.4-0.9c-0.1-0.3-0.3-0.6-0.5-1
			c-0.2-0.4-0.4-0.8-0.7-1.3c-0.1-0.2-0.3-0.5-0.4-0.7c-0.1-0.1-0.1-0.2-0.2-0.4c-0.1-0.1-0.2-0.2-0.3-0.4c-0.3-0.5-0.7-1-1.1-1.6
			c-0.4-0.5-0.8-1-1.2-1.6c-0.2-0.3-0.5-0.5-0.7-0.8c-0.2-0.3-0.5-0.5-0.7-0.8c-0.5-0.5-1-1-1.5-1.4c-0.3-0.2-0.5-0.4-0.8-0.7
			c-0.3-0.2-0.5-0.4-0.8-0.6c-0.5-0.4-1-0.7-1.5-1.1c-0.2-0.2-0.5-0.3-0.7-0.5c-0.2-0.1-0.5-0.3-0.7-0.4c-0.2-0.1-0.4-0.2-0.6-0.4
			c-0.2-0.1-0.4-0.2-0.6-0.3c-0.4-0.2-0.7-0.3-0.9-0.4c-0.2-0.1-0.4-0.2-0.5-0.2c-3-0.4-6.1-0.4-9.1,0.1
			C104.1,11,109.1,15.5,112.3,21.1z"/>
		<path class="st7" d="M145.5,91.7c0.1,1.3,0.3,2.6,0.4,3.8c0.4-0.3,0.8-0.7,1.3-1.1c0.4-0.4,0.9-0.8,1.3-1.3
			c0.4-0.4,0.9-0.9,1.3-1.4c0.2-0.2,0.4-0.5,0.6-0.7c0.2-0.2,0.4-0.5,0.6-0.7c0.2-0.2,0.4-0.5,0.6-0.7c0.2-0.3,0.4-0.5,0.5-0.7
			c0.2-0.2,0.4-0.5,0.5-0.7c0.2-0.2,0.3-0.5,0.5-0.7c0.1-0.2,0.3-0.5,0.4-0.7c0.1-0.2,0.3-0.5,0.4-0.7c0.2-0.4,0.5-0.8,0.6-1.2
			c0.2-0.4,0.3-0.7,0.4-0.9c0.2-0.5,0.4-0.8,0.4-0.8s0,0.3-0.1,0.9c0,0.3-0.1,0.6-0.1,1.1c-0.1,0.4-0.2,0.9-0.3,1.3
			c-0.1,0.2-0.1,0.5-0.2,0.8c-0.1,0.3-0.2,0.5-0.2,0.8c-0.1,0.3-0.2,0.6-0.2,0.9c-0.1,0.3-0.2,0.6-0.3,0.9c-0.1,0.3-0.2,0.6-0.3,0.9
			c-0.1,0.3-0.2,0.6-0.4,0.9c-0.1,0.3-0.3,0.6-0.4,0.9c-0.1,0.3-0.3,0.6-0.4,0.9c-0.3,0.6-0.6,1.2-0.9,1.8c-0.3,0.6-0.7,1.2-1,1.8
			c-0.4,0.6-0.7,1.1-1,1.6c-0.3,0.5-0.7,1-1,1.4c-0.3,0.4-0.6,0.8-0.9,1.2c-0.2,0.3-0.4,0.5-0.6,0.7c0.3,1.6,0.7,3,1,4.3
			c3.7-3.6,6.5-8,8-12.9c1.8-5.6,2-11.7,0.5-17.4C154,81.3,150.3,86.7,145.5,91.7z"/>
		<path class="st8" d="M103.7,112.9c-0.5-2,0.1-4.1,0.8-6c0.8-2.2,2.1-4.2,3.2-6.3c1.1-2.1,1.9-4.4,1.8-6.8c0.8,2,1,4.1,0.6,6.2
			c-0.4,1.6-1.1,3.1-1.8,4.6c-0.7,1.5-1.3,3.1-1.4,4.8c-0.1,1.2,0.2,2.5,0.8,3.5h17.2c-1.8-7.1-0.1-14.7,2-21.8
			c2.3-7.7,5-15.5,4.3-23.5c-0.8-8.1-5.1-15.3-9.3-22.2c11.7,12.1,17.1,30.4,12.9,46.8c0,0,10.3-15.9-3.2-47.8
			c-0.3-0.5-0.6-1-0.9-1.4c-5.1-8.2-10.9-14.2-17.5-17.9c-5.2-2.9-10.8-4.4-16.7-4.4c-8.1,0-14.6,2.8-17.1,4.1
			c0.1,0.4,0.2,0.8,0.3,1.2c3.8-1.3,18.3-4.8,34,6.5c0,0-16.3-10.9-33.5-3.7c0.5,4-0.2,6.5-0.2,6.5c-0.5-3.2-3-9.2-3-9.2l-0.8-1.4
			C71.4,16,65.5,13.7,62,13.1c0.5,0.7,1,1.6,1.4,2.6h0c0,0,7.5,3.8,9.7,14.2c0,0,0.1,2.9,1.5,4.7c1.4,1.7,2.6,2.4,2.6,2.4
			s-2.8,0.1-5.9-4.2c0,0-0.5,0.2-1.5-0.1l-0.9,1.1c-3.4,4.1-4.4,10.3-4.6,15.7c0,0.1-0.3,9.4,5.7,3.8l0,0c1.7-5.1,6.7-7.7,10.9-7.8
			c0,0-4.5,1.5-4.5,5.9s-3.7,7.6-3.7,7.6l0.6,1.4c0,0,5.3-0.6,6.2-5.6c0,0,0.8,4.8-5.9,6.8c0,0-1.6,0.3-0.8,2.4
			c0.8,2.1,5.3,12.6,0.5,17.7c0,0,3.4-4.4-2.1-17.1c-1.2-2.8-1.8-5.4-1.8-7.6l0,0c0,0-0.9,0.3-2-0.5c0,0-1.6,0.3-2.9-0.9
			c0.2,3.2,0.6,5.4,0.6,5.4l0,0.2l-1.7,26.2c0,0,4.5,1.5,2.7,8.1c0,0,0.4-4.7-2.8-5.6l-1,0.3c-0.1,0-0.1,0-0.1,0.1l0.9,7.2v0.1
			c0,1.4,2,1.6,2,1.6l0.6,0l0.4,0.4c3.4,3.6,8.5,4.4,10.3,4.5c-2.3-13.6,5.2-13.2,5.2-13.2c-5.6,2.4-2.6,12.2-2.6,12.2
			c0.8-0.5,1.9-1.3,3.3-2.5c2.4-2,2.3-2.4,2-4.6c-0.1-0.7-0.2-1.4-0.3-2.4l0,0c0,0-1.3,0.1-2,2.6c0,0-0.1-3.1,0.9-4.3
			c1-1.2,0.7-3.4-0.5-3.7c-1.1-0.3-2.8,1.1-2.8,1.1s0.8-3.3,4.8-2.6l0,0c1.1-4,3.9-6.8,6-8.5c-0.9-0.5-2.4-1.5-2.5-3.2
			c0,0,3,2.4,7.8-0.3c3.4-2.9,10.4-11.2,3-26.9c0,0,5.6,5.5,4.5,16c0,0,2.6-4,2.1-9.1c0,0,1.7,5.9-1.5,13.4
			c-0.1,2.5,0.3,5.1,0.8,7.6c0.8,3.7,2.1,7.4,2.6,11.2c0.5,3.8,0.2,7.9-1.8,11.1c1.8-4.8,0.8-10.6-2.2-14.8
			c1.9,3.4,1.1,7.6-1.1,10.8c-1.1,1.6-2.6,3-3.7,4.6c-2.7,4.1-2.4,9.3-1.8,14.2H103.7z M85.7,71.1c0,0-11.2-16.4,0-24.1
			C85.7,47,78.3,54.3,85.7,71.1z"/>
		<path class="st8" d="M69.8,28.9c2.7-0.6-2.1-9.1-5.5-10.9l0,0c0.4,1.3,0.6,2.7,0.7,4.3c0,1.2,0.2,2.4,0.5,3.4
			C65.4,25.8,67.1,29.5,69.8,28.9z"/>
		<path class="st7" d="M62.1,38.3c-0.1-0.1-0.3-0.2-0.4-0.3c-0.1-0.1-0.3-0.2-0.4-0.3c-0.2-0.2-0.5-0.5-0.7-0.8
			c-0.1-0.1-0.2-0.3-0.3-0.4c-0.1-0.1-0.2-0.3-0.3-0.4c-0.1-0.2-0.2-0.3-0.3-0.5c-0.1-0.2-0.1-0.3-0.2-0.5c-0.1-0.2-0.1-0.3-0.2-0.5
			c-0.1-0.2-0.1-0.3-0.1-0.5c0-0.2-0.1-0.3-0.1-0.5L59,33.4l0-0.2c0-0.3-0.1-0.6-0.1-1c0-0.3,0-0.6-0.1-0.9l0-0.2l0-0.1l0-0.1l0,0
			c0,0.1,0,0,0,0.1l0,0l0,0l0-0.4c0-0.3,0-0.6,0-0.8c0-0.2,0-0.5-0.1-0.7c0-0.2-0.1-0.5-0.1-0.7c0-0.3-0.1-0.5-0.2-0.7
			c0-0.1-0.1-0.2-0.1-0.3c0-0.1-0.1-0.2-0.1-0.3c-0.1-0.2-0.2-0.4-0.3-0.6c-0.1-0.2-0.2-0.4-0.3-0.6c-0.1-0.2-0.2-0.4-0.4-0.5
			c-0.1-0.1-0.1-0.2-0.2-0.2c-0.1-0.1-0.1-0.1-0.2-0.2c-0.1-0.1-0.1-0.1-0.2-0.2c-0.1-0.1-0.1-0.1-0.2-0.2c-0.2-0.2-0.5-0.4-0.7-0.5
			c-0.4-0.3-0.7-0.3-0.7-0.3s0.3,0,0.8,0.1c0.2,0.1,0.6,0.1,0.9,0.3c0.1,0,0.2,0.1,0.3,0.1c0.1,0,0.2,0.1,0.3,0.1
			c0.1,0,0.2,0.1,0.3,0.1c0.1,0.1,0.2,0.1,0.3,0.2c0.2,0.1,0.4,0.3,0.6,0.4c0.2,0.1,0.4,0.3,0.6,0.5c0.2,0.2,0.4,0.4,0.6,0.6
			c0.1,0.1,0.2,0.2,0.3,0.3c0.1,0.1,0.2,0.2,0.3,0.4c0.2,0.2,0.3,0.5,0.5,0.7c0.1,0.3,0.3,0.5,0.5,0.8c0.1,0.3,0.3,0.6,0.4,0.9
			c0.1,0.3,0.2,0.5,0.3,0.8l0.2,0.4l0,0l0,0c0,0,0-0.1,0,0.1l0,0l0,0l0,0.1l0.1,0.2c0.1,0.2,0.2,0.5,0.3,0.7
			c0.1,0.2,0.2,0.4,0.3,0.6l0.1,0.1l0.1,0.1c0.1,0.1,0.1,0.2,0.2,0.3c0.1,0.1,0.1,0.2,0.2,0.2c0.1,0.1,0.1,0.1,0.2,0.2
			c0.1,0.1,0.1,0.1,0.2,0.2c0.1,0,0.1,0.1,0.2,0.1c0.1,0,0.1,0.1,0.2,0.1c0.1,0,0.1,0.1,0.2,0.1c0.1,0.1,0.2,0.1,0.3,0.1
			c0,0,0.1,0,0.1,0c0,0,0.1,0,0.1,0c0.5-0.1,0.8-0.3,1-0.5c0-0.1,0.1-0.1,0.1-0.2c-1.3-1.7-3.6-5.3-3.8-10.5
			c-0.1-2.6-0.9-4.8-1.7-6.4c-4.6,1.8-8.4,4.8-11.8,9.2c1.5-0.1,3,0.1,4,0.4c2.7,0.9,4.4,3,4.7,5.9c0,0.5,0.1,0.9,0.1,1.3
			c0.1,1.2,0.1,2.1,0.6,3.3c0.4,1.1,1.4,1.9,2.5,2.3c0.6,0.2,1.3,0.2,2,0C62.2,38.3,62.1,38.3,62.1,38.3z"/>
		<path class="st7" d="M73.3,15.5c0.1,0,0.3,0.1,0.5,0.1c0.2,0,0.3,0.1,0.5,0.1c0.4,0.1,0.8,0.2,1.2,0.3c0.4,0.1,0.9,0.2,1.3,0.4
			c0.5,0.1,0.9,0.3,1.4,0.5l0.4,0.1l0.3,0.1c0.2,0.1,0.5,0.2,0.7,0.3c0.5,0.2,0.9,0.4,1.4,0.7c0.4,0.2,0.9,0.5,1.3,0.7
			c0.4,0.3,0.8,0.5,1.2,0.8c0.1,0.1,0.2,0.1,0.2,0.2c1.2-0.4,2.6-0.8,4.1-1.1c-5.4-2.7-11.2-4.3-16.5-4.5c0.5,0.4,1,0.8,1.5,1.3
			C73,15.4,73.1,15.4,73.3,15.5z"/>
		<path class="st7" d="M96.4,17.7c0.5,0,1,0,1.6,0c-0.1-0.1-0.1-0.1-0.2-0.2c-0.3-0.3-0.6-0.6-0.9-0.9c-0.3-0.3-0.7-0.6-1-0.9
			c-0.4-0.3-0.7-0.6-1.1-0.8c-0.2-0.1-0.4-0.3-0.6-0.4l-0.3-0.2l-0.3-0.2c-0.4-0.2-0.8-0.5-1.2-0.7c-0.4-0.2-0.8-0.4-1.2-0.6
			c-0.4-0.2-0.7-0.3-1.1-0.5c-0.2-0.1-0.3-0.1-0.5-0.2C89.3,12.1,89.2,12,89,12c-0.3-0.1-0.5-0.2-0.7-0.3c-0.4-0.2-0.6-0.2-0.6-0.2
			s0.2,0,0.7,0.1c0.2,0,0.5,0.1,0.8,0.1c0.1,0,0.3,0.1,0.5,0.1c0.2,0,0.3,0.1,0.5,0.1c0.4,0.1,0.8,0.2,1.2,0.3
			c0.4,0.1,0.9,0.2,1.3,0.4c0.5,0.1,0.9,0.3,1.4,0.5l0.4,0.1l0.3,0.1c0.2,0.1,0.5,0.2,0.7,0.3c0.5,0.2,0.9,0.4,1.4,0.7
			c0.4,0.2,0.9,0.5,1.3,0.7c0.4,0.3,0.8,0.5,1.2,0.8c0.4,0.3,0.7,0.5,1,0.8c0.3,0.3,0.6,0.5,0.8,0.7c0.2,0.2,0.4,0.4,0.6,0.6
			c0.1,0.1,0.1,0.2,0.2,0.2c1.9,0.3,3.7,0.7,5.6,1.3c-3.8-4.9-9.4-8.5-15.5-9.8c-5.5-1.2-11.5-0.5-16.6,1.8
			c5.8,0.8,11.9,3.1,17.3,6.4C93.8,17.7,95.1,17.7,96.4,17.7z"/>
		<path class="st7" d="M78.9,18.7c-0.2-0.1-0.4-0.3-0.6-0.4L78,18.1l-0.3-0.2c-0.4-0.2-0.8-0.5-1.2-0.7c-0.4-0.2-0.8-0.4-1.2-0.6
			c-0.4-0.2-0.7-0.3-1.1-0.5c-0.2-0.1-0.3-0.1-0.5-0.2c-0.2-0.1-0.3-0.1-0.4-0.2c0,0-0.1,0-0.1,0c1.7,1.6,3.3,3.7,4.9,6.3
			c0.8-0.4,1.9-0.9,3.2-1.4c-0.1-0.1-0.1-0.1-0.2-0.2c-0.3-0.3-0.7-0.6-1-0.9C79.6,19.3,79.3,18.9,78.9,18.7z"/>
		<path class="st8" d="M156.5,75.8c-2.5,5.5-6.2,10.9-11,15.9c0.1,1.3,0.3,2.6,0.4,3.8c0.2-0.2,0.5-0.4,0.7-0.6
			c0.1-0.1,0.1-0.1,0.2-0.2C155.1,87.2,156.5,75.8,156.5,75.8z"/>
		<path class="st8" d="M156.1,93.2c0.6-1.9,1-3.9,1.3-5.9c-1.5,4.1-4.6,11.7-9.9,16.6c0.2,0.8,0.4,1.5,0.6,2.2
			C151.7,102.5,154.5,98.1,156.1,93.2z"/>
		<path class="st8" d="M141.6,60.3c0.3,1,0.6,2.1,0.9,3.1c2.7-5,4.4-10.1,5-15.1c0.3-3,0.3-5.9-0.2-8.7
			C147.7,50.4,143.4,57.8,141.6,60.3z"/>
		<path class="st8" d="M150.4,48.7c-0.7,6.4-3.1,12.8-7,19.1c0.4,2.2,0.8,4.5,1,6.8c10.9-18.5,6.1-32.4,6.1-32.4
			C150.7,44.3,150.7,46.5,150.4,48.7z"/>
		<path class="st8" d="M145,83.4c0.1,1.5,0.1,2.8,0.2,4.2c6.1-6.9,10-14.4,11.4-21.8c0.4-2.3,0.6-4.7,0.4-7
			C156.6,61.6,154.6,74.4,145,83.4z"/>
		<path class="st8" d="M134.2,43.2c0.4,0.6,0.7,1.3,1.1,1.9c0.7-2,1.3-4.7,1.6-7.5c0.1-0.7,0.1-1.4,0.1-2.1c0-0.2,0-0.5,0-0.7
			c-1.7-10.9-7-15.2-7-15.2C134.3,26.5,135.9,35.2,134.2,43.2z"/>
		<path class="st8" d="M130,36.7L130,36.7c0.6,0.8,1.2,1.7,1.8,2.5c0.5-5.4-0.6-10.9-3-15.7C130.3,29.7,130,36.7,130,36.7z"/>
		<path class="st8" d="M112.3,21.1l-0.1,0.1c0.8,0.4,1.6,0.8,2.4,1.3c0.3,0.2,0.7,0.4,1,0.6C108.1,7.9,98.2,8.4,98.2,8.4
			C104.1,11,109.1,15.5,112.3,21.1z"/>
		<path class="st8" d="M73.3,15.5c0.1,0,0.3,0.1,0.5,0.1c0.2,0,0.3,0.1,0.5,0.1c0.4,0.1,0.8,0.2,1.2,0.3c0.4,0.1,0.9,0.2,1.3,0.4
			c0.5,0.1,0.9,0.3,1.4,0.5l0.4,0.1l0.3,0.1c0.2,0.1,0.5,0.2,0.7,0.3c0.5,0.2,0.9,0.4,1.4,0.7c0.4,0.2,0.9,0.5,1.3,0.7
			c0.4,0.3,0.8,0.5,1.2,0.8c0.1,0.1,0.2,0.1,0.2,0.2c-4.5-4.8-12.4-5.6-12.4-5.6c0.5,0.4,1,0.8,1.5,1.3C73,15.4,73.1,15.4,73.3,15.5
			z"/>
		<path class="st8" d="M81.2,20.6c-0.1-0.1-0.1-0.1-0.2-0.2c-0.3-0.3-0.7-0.6-1-0.9c-0.4-0.3-0.7-0.6-1.1-0.8
			c-0.2-0.1-0.4-0.3-0.6-0.4L78,18.1l-0.3-0.2c-0.4-0.2-0.8-0.5-1.2-0.7c-0.4-0.2-0.8-0.4-1.2-0.6c-0.4-0.2-0.7-0.3-1.1-0.5
			c-0.2-0.1-0.3-0.1-0.5-0.2c-0.2-0.1-0.3-0.1-0.4-0.2c0,0-0.1,0-0.1,0c1.7,1.6,3.3,3.7,4.9,6.3C78.8,21.6,79.9,21.1,81.2,20.6z"/>
		<path class="st8" d="M61.9,30.3L61.9,30.3l0.1,0.3c0.1,0.2,0.2,0.5,0.3,0.7c0.1,0.2,0.2,0.4,0.3,0.6l0.1,0.1l0.1,0.1
			c0.1,0.1,0.1,0.2,0.2,0.3c0.1,0.1,0.1,0.2,0.2,0.2c0.1,0.1,0.1,0.1,0.2,0.2c0.1,0.1,0.1,0.1,0.2,0.2c0.1,0,0.1,0.1,0.2,0.1
			c0.1,0,0.1,0.1,0.2,0.1c0.1,0,0.1,0.1,0.2,0.1c0.1,0.1,0.2,0.1,0.3,0.1c0,0,0.1,0,0.1,0c0,0,0.1,0,0.1,0c0.5-0.1,0.8-0.3,1-0.5
			c0-0.1,0.1-0.1,0.1-0.2c-0.6-0.8-1.4-1.9-2.1-3.4C63.3,30.8,62.6,30.7,61.9,30.3z"/>
		<path class="st8" d="M57.3,34c0.1,0.7,0.2,1.4,0.5,2.1c0.4,1.1,1.4,1.9,2.5,2.3c0.6,0.2,1.3,0.2,2,0c-0.1,0-0.1-0.1-0.2-0.1
			c-0.1-0.1-0.3-0.2-0.4-0.3c-0.1-0.1-0.3-0.2-0.4-0.3c-0.2-0.2-0.5-0.5-0.7-0.8c-0.1-0.1-0.2-0.3-0.3-0.4c-0.1-0.1-0.2-0.3-0.3-0.4
			c-0.1-0.2-0.2-0.3-0.3-0.5c-0.1-0.2-0.1-0.3-0.2-0.5c-0.1-0.2-0.1-0.3-0.2-0.5c-0.1-0.2-0.1-0.3-0.1-0.5c0,0,0-0.1,0-0.1
			C58.4,34.6,57.8,34.4,57.3,34z"/>
		<path class="st7" d="M67.8,16c0,0,1.9,1.7,2.8,3.5c0,0-2.7-2.9-5.2-3.5c0,0,6.2,3.6,8.4,13c0,0,0.4-3.9-1.1-7c0,0,4,4.6,4.6,8.8
			C77.2,30.8,77,22,67.8,16z"/>
		<path class="st7" d="M100.2,23.6c17.9,5.3,16.3,14.1,16.3,14.1c-14-12-32.8-7-32.8-7s1.6,4.7-3.7,7.3c-5.3,2.5-9.7-1.1-9.7-1.1
			s-4.8,5.3-3.6,14.1c0,0,0.4-2.5,1.7-2.6c1.3-0.1,0.8,2.6,0.8,2.6s3.3-7.4,11.6-6.4c0,0-3.1-1.1-7.1,0c0,0,4.5-2.8,11.2-1.3
			c2.6,0.6,4.9,2,4.9,2c-3.6,2.7-5,7.2-5,7.2C83,61.1,87.3,68,87.3,68c-2.1-2-3.3-5.7-3.3-5.7s0.8,8.3,4.8,9.7
			c3.9,1.4,6.3-2.4,6.3-2.4c-7.3-0.3-5-7.3-5-7.3s1-4.3,4.8-4.2c3.8,0.1,3.2,6,3.2,6c3.3-11-3.9-20.8-3.9-20.8
			c4.9,0.8,8.1,7.2,8.1,7.2c-1.2-5.1-3.6-7.9-3.6-7.9c11.5,9.8,10,25.6,10,25.6c3.8-13.6-3.3-22.6-3.3-22.6s12.7,6.4,7.9,21.8
			c-4.7,15.5,0.7,32,0.7,32c-0.2-8.9,5.7-16,5.7-16c-2.3,10.9,0.6,19.5,0.6,19.5c0.6-14.4,5.8-14.2,6.7-30.9
			c0.9-16.7-8.4-30.5-8.4-30.5c7.7,2.1,13.8,12.1,13.8,12.1C121.3,23.6,100.2,23.6,100.2,23.6z"/>
		<path class="st7" d="M75.8,64.7c5.9,18.1-5,20.4-5,20.4c4.9-10.5-1.9-22.2-1.9-22.2s-0.6-3.6-1.9-3.5c-1.2,0.1-0.6,3.1-0.6,3.1
			l-1.9,23.6c6.6,2.5,3.7,10.9,3.7,10.9c1.4,2.7,4.9,2.9,4.9,2.9c-1.3-5.2,1.9-9.1,1.9-9.1c1.5-5.5,5.6-6.1,5.6-6.1
			c0.3-5.8,5-9.5,5-9.5c-5.3-6.6-6.6-13.7-6.6-13.7C78.8,63.4,75.8,64.7,75.8,64.7z"/>
		<path d="M85.7,47c-11.2,7.7,0,24.1,0,24.1C78.3,54.3,85.7,47,85.7,47z"/>
		<path class="st0" d="M157.3,154.7h-2.4c2.6,0,4.8-2.1,4.8-4.8v-1.2c0-2.3-1.7-4.3-3.9-4.7v-11c2.2-0.4,3.9-2.4,3.9-4.7v-1.2
			c0-2.6-2.1-4.7-4.7-4.8v-0.8h-3.7v0l0.4-1.8l0.9-3.9l-1.4-2.3c-0.7-1.1-1.4-2.5-2.1-4.4c4.6-4.1,8-9.3,9.9-15.2
			c2.4-7.4,2.1-15.5-0.7-22.8c0.5-1.6,1-3.3,1.3-4.9c2-10.6-1.9-22.3-9.7-29.3c-0.8-3.5-2.1-6.7-4-9.6c-4.2-6.4-11.2-10.7-18.3-11.3
			c-0.9-1.1-1.8-2.1-2.8-3c-8.3-7.6-21.1-10.2-31.8-6.5c-0.1,0-0.2-0.1-0.3-0.1c-7.8-1.7-16.2,0-22.8,4.4c-1.1,0-2.2,0.1-3.3,0.2
			c-4.4-1.8-7.8-1.3-8-1.3l-3,0.5l2.2,2.1c0,0,0.3,0.3,0.7,0.8c-6,2.5-10.9,6.9-15,13.6l-1.9,3.7c0,0,4.9-3.3,9.9-2.2
			c1.6,0.4,2.4,1.6,2.6,3.3c0,0.4,0.1,0.8,0.1,1.2c0.1,1.3,0.2,2.6,0.8,4.2c0.8,1.9,2.4,3.5,4.4,4.1c0.6,0.2,1.3,0.3,1.9,0.3
			c0.3,0,0.5,0,0.8,0c-2,8.8-0.5,18.5-0.2,20l-1.7,26.4c-1,0.7-1.3,1.7-1.3,2.3l0.9,7.5c0,1.7,1,3.1,2.6,3.9
			c0.6,0.3,1.2,0.4,1.7,0.5c4.9,4.8,12,5.1,12.6,5.1l0.1,0c0.8,0,2.8-0.6,7.3-4.3c3.6-3,3.5-4.6,3-7.4c-0.2-1.4-0.5-3-0.3-5.7
			c0.4-5.2,4.5-8.6,6.5-10c1.8,2.2,5.4,8,0.9,12.4c-9.2,9-8.6,21.8-8.5,22.3l0.1,1.4l1.7,3.9l0.8,1.8v0h-3.1v0.8
			c-2.6,0-4.7,2.2-4.7,4.8v1.2c0,2.3,1.7,4.3,3.9,4.7v11c-2.2,0.4-3.9,2.4-3.9,4.7v1.2c0,2.6,2.1,4.8,4.8,4.8h-2.4
			c-4.5,0-8.2,3.7-8.2,8.2l0,0c0,0.5,0.4,0.8,0.8,0.8h89c0.5,0,0.8-0.4,0.8-0.8C165.4,158.4,161.8,154.7,157.3,154.7z M157.3,87.2
			c-0.2,2-0.6,4-1.3,5.9c-1.6,4.9-4.4,9.4-8,12.9c-0.2-0.7-0.4-1.4-0.6-2.2c-0.2-0.7-0.3-1.3-0.5-2c0.2-0.2,0.4-0.4,0.6-0.7
			c0.3-0.3,0.6-0.7,0.9-1.2c0.3-0.4,0.6-0.9,1-1.4c0.3-0.5,0.7-1,1-1.6c0.3-0.6,0.7-1.1,1-1.8c0.3-0.6,0.6-1.2,0.9-1.8
			c0.1-0.3,0.3-0.6,0.4-0.9c0.1-0.3,0.3-0.6,0.4-0.9c0.1-0.3,0.3-0.6,0.4-0.9c0.1-0.3,0.2-0.6,0.3-0.9c0.1-0.3,0.2-0.6,0.3-0.9
			c0.1-0.3,0.2-0.6,0.2-0.9c0.1-0.3,0.2-0.6,0.2-0.8c0.1-0.3,0.1-0.5,0.2-0.8c0.1-0.5,0.2-0.9,0.3-1.3c0.1-0.4,0.1-0.8,0.1-1.1
			c0.1-0.6,0.1-0.9,0.1-0.9s-0.1,0.3-0.4,0.8c-0.1,0.3-0.3,0.6-0.4,0.9c-0.2,0.4-0.4,0.8-0.6,1.2c-0.1,0.2-0.2,0.4-0.4,0.7
			c-0.1,0.2-0.3,0.5-0.4,0.7c-0.1,0.2-0.3,0.5-0.5,0.7c-0.2,0.2-0.3,0.5-0.5,0.7c-0.2,0.2-0.4,0.5-0.5,0.7c-0.2,0.2-0.4,0.5-0.6,0.7
			c-0.2,0.2-0.4,0.5-0.6,0.7c-0.2,0.2-0.4,0.5-0.6,0.7c-0.4,0.5-0.9,0.9-1.3,1.4c-0.4,0.4-0.9,0.9-1.3,1.3c-0.1,0.1-0.3,0.2-0.4,0.3
			c-0.1,0.1-0.1,0.1-0.2,0.2c-0.2,0.2-0.5,0.4-0.7,0.6c-0.2-1.2-0.3-2.4-0.4-3.8c4.8-5.1,8.5-10.4,11-15.9
			C157.5,79.5,157.8,83.4,157.3,87.2z M150.4,48.7c0.3-2.2,0.3-4.4,0.2-6.5c3.7,4.6,6,10.5,6.4,16.6c0.2,2.3,0,4.7-0.4,7
			c-1.4,7.4-5.3,14.9-11.4,21.8c-0.1-1.3-0.2-2.7-0.2-4.2c0-0.1,0-0.2,0-0.3c0.2-0.2,0.4-0.5,0.6-0.9c0.5-0.8,1.3-2,2.1-3.4
			c0.4-0.7,0.8-1.5,1.2-2.3c0.4-0.8,0.8-1.7,1.2-2.7c0.4-0.9,0.8-1.9,1.1-2.9c0.3-1,0.6-2,0.9-3.1c0.1-0.5,0.2-1,0.4-1.6
			c0.1-0.5,0.2-1,0.3-1.6c0.2-1,0.3-2.1,0.4-3c0-0.5,0.1-1,0.1-1.5c0-0.5,0.1-0.9,0.1-1.4c0-0.5,0-0.9,0-1.3c0-0.4,0-0.8,0-1.2
			c0-0.4,0-0.8-0.1-1.1c0-0.4-0.1-0.7-0.1-1c-0.1-0.6-0.1-1.2-0.2-1.6c-0.2-0.9-0.3-1.4-0.3-1.4s0,0.5,0,1.4c0,0.5,0,1-0.1,1.6
			c0,0.3-0.1,0.6-0.1,1c0,0.3-0.1,0.7-0.1,1.1c-0.1,0.4-0.1,0.8-0.2,1.2c-0.1,0.4-0.2,0.8-0.2,1.3c-0.1,0.4-0.2,0.9-0.3,1.3
			c-0.1,0.4-0.2,0.9-0.4,1.3c-0.3,0.9-0.6,1.8-0.9,2.8c-0.2,0.5-0.4,0.9-0.5,1.4c-0.2,0.5-0.4,0.9-0.6,1.4c-0.4,0.9-0.9,1.8-1.3,2.7
			c-0.5,0.9-1,1.7-1.5,2.5c-0.5,0.8-1,1.5-1.5,2.2c-0.1,0.2-0.2,0.3-0.4,0.5c-0.2-2.3-0.6-4.5-1-6.8C147.4,61.5,149.7,55,150.4,48.7
			z M137.3,22.9c0.1,0.1,0.2,0.3,0.3,0.6c0.1,0.3,0.3,0.7,0.5,1.2c0.1,0.2,0.2,0.5,0.3,0.7c0.1,0.3,0.2,0.5,0.3,0.8
			c0.1,0.3,0.2,0.6,0.3,0.9c0.1,0.3,0.2,0.7,0.3,1c0.2,0.7,0.4,1.4,0.6,2.2c0.1,0.4,0.2,0.8,0.3,1.2c0.1,0.4,0.2,0.8,0.2,1.2
			c0.2,0.8,0.3,1.7,0.4,2.5c0.1,0.4,0.1,0.8,0.1,1.3c0,0.4,0.1,0.8,0.1,1.3c0.1,0.8,0.1,1.7,0.1,2.5c0,0.8,0,1.6,0,2.3
			c0,0.7-0.1,1.4-0.1,2.1c0,0.3,0,0.6-0.1,0.9c0,0.1,0,0.3,0,0.4c0,0.1,0,0.3,0,0.4c-0.1,0.5-0.1,1-0.2,1.3
			c-0.1,0.8-0.1,1.2-0.1,1.2s0.1-0.4,0.3-1.2c0.1-0.4,0.2-0.8,0.3-1.3c0-0.1,0.1-0.3,0.1-0.4c0-0.1,0-0.3,0.1-0.4
			c0.1-0.3,0.1-0.6,0.2-0.9c0.1-0.6,0.3-1.3,0.3-2.1c0.1-0.7,0.2-1.5,0.3-2.3c0-0.8,0.1-1.7,0.1-2.5c0-0.4,0-0.9,0-1.3
			c0-0.4,0-0.9,0-1.3c0-0.9,0-1.8-0.1-2.6c0-0.4-0.1-0.9-0.1-1.3c-0.1-0.4-0.1-0.8-0.2-1.2c-0.1-0.8-0.2-1.6-0.4-2.4
			c-0.1-0.4-0.1-0.7-0.2-1c0.7,0.8,1.3,1.6,1.9,2.4c2,3.1,3.4,6.7,4,10.6c0.4,2.8,0.5,5.7,0.2,8.7c-0.6,5-2.2,10.1-5,15.1
			c-0.3-1-0.5-2.1-0.9-3.1c0,0,0-0.1,0-0.1c0.1-0.1,0.1-0.2,0.2-0.4c0.3-0.7,0.7-1.6,1.1-2.7c0.4-1.1,0.8-2.5,1.2-3.9
			c0.2-0.7,0.4-1.5,0.5-2.3c0.2-0.8,0.3-1.6,0.4-2.3c0.1-0.8,0.2-1.6,0.2-2.4c0-0.8,0.1-1.5,0.1-2.3c0-0.7,0-1.5-0.1-2.1
			c0-0.3-0.1-0.7-0.1-1c0-0.3-0.1-0.6-0.1-0.9c-0.1-0.6-0.2-1.1-0.3-1.6c-0.1-0.5-0.2-0.9-0.3-1.2c-0.2-0.7-0.3-1-0.3-1
			s0,0.4,0.1,1.1c0,0.3,0.1,0.8,0.1,1.2c0,0.5,0.1,1,0.1,1.6c0,0.3,0,0.6,0,0.9c0,0.3,0,0.6,0,1c0,0.7-0.1,1.4-0.2,2.1
			c-0.1,0.7-0.2,1.5-0.3,2.2c-0.1,0.7-0.3,1.5-0.5,2.2c-0.2,0.7-0.4,1.5-0.6,2.2c-0.2,0.7-0.5,1.4-0.7,2.1c-0.5,1.3-1.1,2.5-1.6,3.5
			c-0.1,0.1-0.1,0.2-0.2,0.4c-0.9-2.7-2-5.3-3.3-7.9c0,0,0-0.1,0-0.1c0.2-0.6,0.4-1.6,0.6-2.7c0.4-2.2,0.8-5.2,0.6-8.2
			c0-0.7-0.1-1.5-0.2-2.2c0-0.4-0.1-0.7-0.1-1.1c-0.1-0.4-0.1-0.7-0.2-1c-0.1-0.3-0.1-0.7-0.2-1c-0.1-0.3-0.2-0.6-0.2-0.9
			c-0.2-0.6-0.3-1.2-0.5-1.7c-0.1-0.3-0.2-0.5-0.3-0.7c-0.1-0.2-0.2-0.5-0.3-0.7c-0.2-0.4-0.3-0.8-0.5-1c-0.3-0.6-0.5-0.9-0.5-0.9
			s0.1,0.3,0.3,0.9c0.1,0.3,0.2,0.7,0.3,1.1c0.1,0.2,0.1,0.4,0.2,0.7c0.1,0.2,0.1,0.5,0.2,0.8c0.1,0.5,0.2,1.1,0.3,1.7
			c0,0.3,0.1,0.6,0.1,0.9c0,0.3,0.1,0.7,0.1,1c0,0.3,0,0.7,0,1c0,0.1,0,0.2,0,0.4c0,0.2,0,0.5,0,0.7c0,0.7,0,1.4-0.1,2.1
			c-0.2,2.8-0.9,5.5-1.6,7.5c-0.4-0.6-0.7-1.3-1.1-1.9c1.7-8,0.1-16.6-4.2-23.6C132.6,20.2,135.1,21.3,137.3,22.9z M107.3,8.3
			c0.1,0,0.3,0.1,0.5,0.2c0.3,0.1,0.6,0.3,0.9,0.4c0.2,0.1,0.4,0.2,0.6,0.3c0.2,0.1,0.4,0.2,0.6,0.4c0.2,0.1,0.4,0.3,0.7,0.4
			c0.2,0.1,0.5,0.3,0.7,0.5c0.5,0.3,1,0.7,1.5,1.1c0.3,0.2,0.5,0.4,0.8,0.6c0.2,0.2,0.5,0.4,0.8,0.7c0.5,0.4,1,0.9,1.5,1.4
			c0.3,0.2,0.5,0.5,0.7,0.8c0.2,0.3,0.5,0.5,0.7,0.8c0.4,0.5,0.8,1.1,1.2,1.6c0.4,0.5,0.7,1.1,1.1,1.6c0.1,0.1,0.2,0.2,0.3,0.4
			c0.1,0.1,0.1,0.3,0.2,0.4c0.1,0.2,0.3,0.5,0.4,0.7c0.3,0.5,0.5,0.9,0.7,1.3c0.2,0.4,0.4,0.7,0.5,1c0.3,0.6,0.4,0.9,0.4,0.9
			s-0.1-0.3-0.3-0.9c-0.1-0.3-0.2-0.7-0.4-1.1c-0.1-0.4-0.3-0.9-0.5-1.4c-0.1-0.2-0.2-0.5-0.3-0.8c-0.1-0.1-0.1-0.3-0.2-0.4
			c-0.1-0.1-0.1-0.3-0.2-0.4c-0.3-0.5-0.6-1.1-0.9-1.7c-0.3-0.6-0.7-1.2-1.1-1.8c-0.2-0.3-0.4-0.6-0.6-0.9c-0.2-0.3-0.4-0.6-0.6-0.9
			c-0.5-0.6-0.9-1.2-1.4-1.7c-0.2-0.3-0.5-0.5-0.7-0.8c-0.2-0.2-0.3-0.3-0.5-0.5c3,1.2,5.8,3,8.2,5.2c2.5,2.3,4.6,5.1,6.1,8.1
			c2.4,4.8,3.5,10.3,3,15.7c-0.6-0.9-1.2-1.7-1.8-2.5c-0.2-0.3-0.4-0.6-0.6-0.8c0-0.2,0-0.4,0-0.6c0-0.6,0-1.5-0.2-2.5
			c-0.1-1-0.3-2.2-0.6-3.5c-0.2-0.6-0.3-1.3-0.5-1.9c-0.2-0.6-0.4-1.3-0.7-1.9c-0.3-0.6-0.5-1.3-0.8-1.8c-0.2-0.3-0.3-0.6-0.5-0.9
			c-0.2-0.3-0.3-0.6-0.5-0.8c-0.3-0.5-0.7-1.1-1-1.5c-0.2-0.2-0.3-0.5-0.5-0.7c-0.2-0.2-0.3-0.4-0.5-0.6c-0.3-0.4-0.6-0.7-0.9-1
			c-0.3-0.3-0.5-0.6-0.7-0.8c-0.4-0.4-0.7-0.6-0.7-0.6s0.2,0.3,0.6,0.7c0.2,0.2,0.4,0.5,0.6,0.8c0.2,0.3,0.5,0.7,0.7,1.1
			c0.1,0.2,0.3,0.4,0.4,0.7c0.1,0.2,0.3,0.5,0.4,0.7c0.3,0.5,0.5,1,0.7,1.6c0.1,0.3,0.2,0.6,0.3,0.9c0.1,0.3,0.2,0.6,0.3,0.9
			c0.2,0.6,0.4,1.2,0.5,1.8c0.1,0.6,0.3,1.3,0.4,1.9c0.1,0.6,0.2,1.2,0.2,1.8c0.1,1.1,0.1,2,0.1,2.9c-2-2.3-4.2-4.4-6.4-6.2
			c0-0.1-0.1-0.3-0.1-0.4c-0.2-0.6-0.5-1.5-0.9-2.5c-0.8-2-2.1-4.5-3.9-6.8c-0.4-0.6-0.9-1.1-1.4-1.6c-0.2-0.3-0.5-0.5-0.7-0.7
			c-0.2-0.2-0.5-0.5-0.7-0.7c-0.2-0.2-0.5-0.4-0.7-0.6c-0.2-0.2-0.5-0.4-0.7-0.6c-0.2-0.2-0.5-0.3-0.7-0.5c-0.2-0.2-0.5-0.3-0.7-0.4
			c-0.2-0.1-0.4-0.3-0.6-0.4c-0.2-0.1-0.4-0.2-0.6-0.3c-0.4-0.2-0.7-0.4-1-0.5c-0.6-0.2-0.9-0.4-0.9-0.4s0.3,0.2,0.8,0.5
			c0.3,0.2,0.5,0.4,0.9,0.6c0.2,0.1,0.3,0.3,0.5,0.4c0.2,0.1,0.4,0.3,0.6,0.5c0.2,0.2,0.4,0.3,0.6,0.5c0.2,0.2,0.4,0.4,0.6,0.6
			c0.2,0.2,0.4,0.4,0.6,0.6c0.2,0.2,0.4,0.5,0.6,0.7c0.2,0.2,0.4,0.5,0.6,0.7c0.2,0.3,0.4,0.5,0.6,0.8c0.4,0.5,0.7,1.1,1.1,1.7
			c1.2,2.1,2.1,4.4,2.6,6.2c-0.3-0.2-0.7-0.4-1-0.6c-0.3-0.2-0.7-0.4-1-0.6c-0.8-0.5-1.6-0.9-2.4-1.3l0.1-0.1
			c-3.1-5.6-8.2-10.1-14.1-12.7C101.2,7.9,104.3,7.9,107.3,8.3z M92,9.6c6.1,1.3,11.7,4.9,15.5,9.8c-1.8-0.6-3.7-1-5.6-1.3
			c-0.1-0.1-0.1-0.1-0.2-0.2c-0.2-0.2-0.4-0.4-0.6-0.6c-0.2-0.2-0.5-0.5-0.8-0.7c-0.3-0.2-0.6-0.5-1-0.8c-0.4-0.3-0.8-0.5-1.2-0.8
			c-0.4-0.3-0.9-0.5-1.3-0.7c-0.5-0.2-0.9-0.5-1.4-0.7c-0.2-0.1-0.5-0.2-0.7-0.3l-0.3-0.1L94,13c-0.5-0.2-0.9-0.3-1.4-0.5
			c-0.5-0.1-0.9-0.3-1.3-0.4c-0.4-0.1-0.8-0.2-1.2-0.3c-0.2,0-0.4-0.1-0.5-0.1c-0.2,0-0.3-0.1-0.5-0.1c-0.3-0.1-0.6-0.1-0.8-0.1
			c-0.4-0.1-0.7-0.1-0.7-0.1s0.2,0.1,0.6,0.2c0.2,0.1,0.4,0.2,0.7,0.3c0.1,0.1,0.3,0.1,0.4,0.2c0.2,0.1,0.3,0.1,0.5,0.2
			c0.3,0.1,0.7,0.3,1.1,0.5c0.4,0.2,0.8,0.4,1.2,0.6c0.4,0.2,0.8,0.5,1.2,0.7l0.3,0.2l0.3,0.2c0.2,0.1,0.4,0.3,0.6,0.4
			c0.4,0.3,0.8,0.6,1.1,0.8c0.4,0.3,0.7,0.6,1,0.9c0.3,0.3,0.6,0.6,0.9,0.9c0.1,0.1,0.1,0.1,0.2,0.2c-0.5,0-1,0-1.6,0
			c-1.3,0-2.5,0.1-3.7,0.2c-5.4-3.4-11.5-5.6-17.3-6.4C80.5,9.1,86.4,8.4,92,9.6z M87.8,18.6c-1.5,0.3-2.9,0.7-4.1,1.1
			c-0.1-0.1-0.2-0.1-0.2-0.2c-0.4-0.3-0.8-0.5-1.2-0.8c-0.4-0.3-0.9-0.5-1.3-0.7c-0.5-0.2-0.9-0.5-1.4-0.7c-0.2-0.1-0.5-0.2-0.7-0.3
			l-0.3-0.1l-0.4-0.1c-0.5-0.2-0.9-0.3-1.4-0.5c-0.5-0.1-0.9-0.3-1.3-0.4c-0.4-0.1-0.8-0.2-1.2-0.3c-0.2,0-0.4-0.1-0.5-0.1
			c-0.2,0-0.3-0.1-0.5-0.1c-0.2,0-0.4-0.1-0.5-0.1c-0.5-0.5-1-0.9-1.5-1.3C76.6,14.3,82.4,15.9,87.8,18.6z M81.2,20.6
			c-1.3,0.5-2.4,1-3.2,1.4c-1.6-2.6-3.2-4.7-4.9-6.3c0,0,0.1,0,0.1,0c0.1,0.1,0.3,0.1,0.4,0.2c0.2,0.1,0.3,0.1,0.5,0.2
			c0.3,0.1,0.7,0.3,1.1,0.5c0.4,0.2,0.8,0.4,1.2,0.6c0.4,0.2,0.8,0.5,1.2,0.7l0.3,0.2l0.3,0.2c0.2,0.1,0.4,0.3,0.6,0.4
			c0.4,0.3,0.8,0.6,1.1,0.8c0.4,0.3,0.7,0.6,1,0.9C81.1,20.5,81.2,20.5,81.2,20.6z M60.3,38.3c-1.1-0.3-2.1-1.2-2.5-2.3
			c-0.3-0.8-0.4-1.4-0.5-2.1c0-0.4-0.1-0.8-0.1-1.2c0-0.4-0.1-0.8-0.1-1.3c-0.3-2.9-2-5-4.7-5.9c-1-0.3-2.5-0.5-4-0.4
			c3.4-4.4,7.2-7.4,11.8-9.2c0.9,1.6,1.6,3.8,1.7,6.4c0.1,2.9,0.8,5.2,1.7,7.1c0.7,1.5,1.5,2.7,2.1,3.4c0,0.1-0.1,0.1-0.1,0.2
			c-0.2,0.2-0.6,0.3-1,0.5c0,0-0.1,0-0.1,0c0,0-0.1,0-0.1,0c-0.1,0-0.2,0-0.3-0.1c-0.1,0-0.1-0.1-0.2-0.1c-0.1,0-0.1-0.1-0.2-0.1
			c-0.1,0-0.1-0.1-0.2-0.1c-0.1-0.1-0.1-0.1-0.2-0.2c-0.1-0.1-0.1-0.1-0.2-0.2c-0.1-0.1-0.1-0.2-0.2-0.2c-0.1-0.1-0.1-0.2-0.2-0.3
			l-0.1-0.1l-0.1-0.1c-0.1-0.2-0.2-0.4-0.3-0.6c-0.1-0.2-0.2-0.5-0.3-0.7l-0.1-0.2l0-0.1l0,0l0,0l0,0c0-0.1,0,0,0-0.1l0,0l0,0
			l-0.2-0.4c-0.1-0.3-0.2-0.5-0.3-0.8c-0.1-0.3-0.3-0.6-0.4-0.9c-0.1-0.3-0.3-0.5-0.5-0.8c-0.1-0.3-0.3-0.5-0.5-0.7
			c-0.1-0.1-0.2-0.2-0.3-0.4c-0.1-0.1-0.2-0.2-0.3-0.3c-0.2-0.2-0.4-0.4-0.6-0.6c-0.2-0.2-0.4-0.4-0.6-0.5c-0.2-0.2-0.4-0.3-0.6-0.4
			c-0.1-0.1-0.2-0.1-0.3-0.2c-0.1-0.1-0.2-0.1-0.3-0.1c-0.1,0-0.2-0.1-0.3-0.1c-0.1,0-0.2-0.1-0.3-0.1c-0.3-0.1-0.6-0.2-0.9-0.3
			c-0.5-0.1-0.8-0.1-0.8-0.1s0.3,0.1,0.7,0.3c0.2,0.1,0.5,0.3,0.7,0.5c0.1,0.1,0.1,0.1,0.2,0.2c0.1,0.1,0.1,0.1,0.2,0.2
			c0.1,0.1,0.1,0.1,0.2,0.2c0.1,0.1,0.1,0.2,0.2,0.2c0.1,0.2,0.2,0.3,0.4,0.5c0.1,0.2,0.2,0.4,0.3,0.6c0.1,0.2,0.2,0.4,0.3,0.6
			c0,0.1,0.1,0.2,0.1,0.3c0,0.1,0.1,0.2,0.1,0.3c0.1,0.2,0.1,0.5,0.2,0.7c0,0.2,0.1,0.5,0.1,0.7c0,0.2,0,0.5,0.1,0.7
			c0,0.3,0,0.6,0,0.8l0,0.4l0,0l0,0c0,0,0,0.1,0-0.1l0,0l0,0.1l0,0.1l0,0.2c0,0.3,0,0.6,0.1,0.9c0.1,0.3,0.1,0.6,0.1,1l0,0.2
			l0.1,0.2c0,0.1,0.1,0.3,0.1,0.4c0,0,0,0.1,0,0.1c0,0.2,0.1,0.3,0.1,0.5c0.1,0.2,0.1,0.3,0.2,0.5c0.1,0.2,0.1,0.3,0.2,0.5
			c0.1,0.2,0.2,0.3,0.3,0.5c0.1,0.1,0.2,0.3,0.3,0.4c0.1,0.1,0.2,0.3,0.3,0.4c0.2,0.3,0.5,0.5,0.7,0.8c0.1,0.1,0.3,0.2,0.4,0.3
			c0.1,0.1,0.3,0.2,0.4,0.3c0.1,0,0.1,0.1,0.2,0.1C61.6,38.5,60.9,38.5,60.3,38.3z M64.3,18.1L64.3,18.1c3.4,1.8,8.2,10.3,5.5,10.9
			c-2.6,0.5-4.3-3.2-4.3-3.2c-0.3-1-0.4-2.1-0.5-3.4C64.9,20.8,64.6,19.4,64.3,18.1z M98.2,98.7c1.1-1.6,2.6-3,3.7-4.6
			c2.1-3.2,2.9-7.4,1.1-10.8c3,4.2,4,10,2.2,14.8c2-3.2,2.3-7.3,1.8-11.1c-0.5-3.8-1.7-7.4-2.6-11.2c-0.6-2.5-0.9-5-0.8-7.6
			c3.2-7.5,1.5-13.4,1.5-13.4c0.5,5.1-2.1,9.1-2.1,9.1c1-10.6-4.5-16-4.5-16c7.3,15.7,0.4,24-3,26.9c-4.8,2.7-7.8,0.3-7.8,0.3
			c0.2,1.7,1.6,2.7,2.5,3.2c-2.1,1.7-4.8,4.5-6,8.5l0,0c-4-0.7-4.8,2.6-4.8,2.6s1.7-1.4,2.8-1.1c1.1,0.3,1.5,2.5,0.5,3.7
			c-1,1.2-0.9,4.3-0.9,4.3c0.7-2.6,2-2.6,2-2.6l0,0c0.1,0.9,0.2,1.7,0.3,2.4c0.4,2.1,0.4,2.6-2,4.6c-1.4,1.2-2.5,2-3.3,2.5
			c0,0-3-9.8,2.6-12.2c0,0-7.5-0.4-5.2,13.2c-1.8-0.2-6.9-1-10.3-4.5l-0.4-0.4l-0.6,0c-0.1,0-2-0.1-2-1.6v-0.1l-0.9-7.2
			c0,0,0.1,0,0.1-0.1l1-0.3c3.2,1,2.8,5.6,2.8,5.6c1.8-6.5-2.7-8.1-2.7-8.1l1.7-26.2l0-0.2c0-0.1-0.4-2.2-0.6-5.4
			c1.3,1.2,2.9,0.9,2.9,0.9c1.2,0.7,2,0.5,2,0.5l0,0c0,2.2,0.5,4.7,1.8,7.6c5.5,12.7,2.1,17.1,2.1,17.1c4.8-5.1,0.3-15.6-0.5-17.7
			c-0.8-2.1,0.8-2.4,0.8-2.4c6.7-2,5.9-6.8,5.9-6.8c-0.9,5.1-6.2,5.6-6.2,5.6l-0.6-1.4c0,0,3.7-3.2,3.7-7.6s4.5-5.9,4.5-5.9
			c-4.2,0-9.2,2.6-10.9,7.8l0,0c-5.9,5.6-5.7-3.7-5.7-3.8c0.2-5.5,1.3-11.6,4.6-15.7l0.9-1.1c1,0.2,1.5,0.1,1.5,0.1
			c3.2,4.4,5.9,4.2,5.9,4.2s-1.2-0.7-2.6-2.4c-1.4-1.7-1.5-4.7-1.5-4.7c-2.2-10.4-9.7-14.2-9.7-14.2l0,0c-0.4-1-0.9-1.9-1.4-2.6
			c3.5,0.6,9.4,2.9,14.1,11.6l0.8,1.4c0,0,2.5,6,3,9.2c0,0,0.7-2.5,0.2-6.5c17.2-7.2,33.5,3.7,33.5,3.7c-15.7-11.3-30.2-7.7-34-6.5
			c-0.1-0.4-0.2-0.8-0.3-1.2c2.4-1.2,8.9-4.1,17.1-4.1c5.9,0,11.5,1.5,16.7,4.4c6.5,3.7,12.4,9.7,17.5,17.9c0.3,0.5,0.6,1,0.9,1.4
			c13.5,31.8,3.2,47.8,3.2,47.8c4.2-16.3-1.1-34.6-12.9-46.8c4.2,6.9,8.6,14.2,9.3,22.2c0.8,8-2,15.8-4.3,23.5
			c-2.1,7.1-3.8,14.7-2,21.8h-17.2c-0.6-1-0.9-2.3-0.8-3.5c0.1-1.7,0.7-3.2,1.4-4.8c0.7-1.5,1.4-3,1.8-4.6c0.5-2.1,0.3-4.2-0.6-6.2
			c0.1,2.4-0.7,4.7-1.8,6.8c-1.1,2.1-2.3,4.1-3.2,6.3c-0.7,1.9-1.3,4.1-0.8,6h-7.3C95.8,108,95.5,102.8,98.2,98.7z"/>
		<path class="st7" d="M157.9,127.7v-0.5c0-1.6-1.3-2.9-2.9-2.9H85.2c-1.6,0-2.9,1.3-2.9,2.9v0.5H157.9z"/>
		<path class="st7" d="M157.9,149.4v-0.6c0-1.6-1.3-2.9-2.9-2.9H85.2c-1.6,0-2.9,1.3-2.9,2.9v0.6H157.9z"/>
		<path class="st7" d="M162.6,159.5c-1.1-1.7-3.1-2.9-5.3-2.9H82.9c-2.2,0-4.2,1.2-5.3,2.9H162.6z"/>
		<g>
			<rect x="133.7" y="134.3" class="st8" width="19.9" height="8.6"/>
			<rect x="123.7" y="134.3" class="st7" width="7.8" height="8.6"/>
			<rect x="118.2" y="134.3" class="st7" width="3" height="8.6"/>
		</g>
	</g>
</g>
<g>
</g>
<g>
</g>
<g>
</g>
<g>
</g>
<g>
</g>
</svg>
